<svg version="1.1" xmlns="http://www.w3.org/2000/svg" width="1024" height="1024" viewBox="0 0 1024 1024">
<path fill="#000" d="M554.667 660.821v181.248c0 19.712 3.84 53.931-15.915 53.931h-69.419v-42.667h42.667v-136.107l-7.381-7.68c-61.995 51.413-150.528 53.248-199.253 4.608-49.365-49.493-44.331-116.821 9.344-202.155h-144.043v42.667h-42.667v-69.419c0-19.755 34.219-15.915 53.931-15.915h175.147l197.589 191.488zM426.667 213.333h-42.667v-42.667h83.413c19.627 0 44.587 9.387 44.587 29.099v142.72l31.403 37.333c7.68-41.515 37.973-72.96 81.664-72.96 6.101 0 14.933 0.597 14.933 1.707v-95.232h42.667v111.701c0 4.992 11.307 16.299 16.299 16.299h111.701v42.667h-95.275c1.152 0 1.792 6.571 1.792 12.715 0 43.733-31.573 74.795-73.045 82.432l37.333 32.853h142.763c19.712 0 29.099 24.875 29.099 44.587v83.413h-42.667v-42.667h-107.52l-276.48-268.885v-115.115zM512 0c-282.752 0-512 229.248-512 512s229.248 512 512 512 512-229.248 512-512-229.248-512-512-512zM938.667 512c0 102.272-36.267 196.267-96.512 269.824l-599.979-599.979c73.557-60.245 167.509-96.512 269.824-96.512 235.264 0 426.667 191.403 426.667 426.667zM85.333 512c0-102.315 36.267-196.267 96.512-269.824l599.979 600.064c-73.557 60.16-167.552 96.427-269.824 96.427-235.264 0-426.667-191.403-426.667-426.667z"></path>
</svg>
