<svg version="1.1" xmlns="http://www.w3.org/2000/svg" width="1024" height="1024" viewBox="0 0 1024 1024">
<path fill="#000" d="M1001.142 465.131l-445.602-445.602c-12.635-12.55-28.685-19.294-46.485-19.294s-33.85 6.702-46.485 19.294l-95.959 95.916 108.807 108.807c10.629-4.781 22.282-7.555 34.704-7.555 47.211 0 85.458 38.247 85.458 85.458 0 12.422-2.732 24.118-7.513 34.747l98.648 99.715c10.672-4.738 27.020-9.989 39.399-9.989 47.211 0 85.372 38.887 85.372 86.055s-38.161 84.049-85.372 84.049c-47.168-0.043-86.055-32.057-86.055-84.732 0-11.952 0.683-19.721 5.080-30.051l-101.294-101.337-0.982 0.299v267.813c31.887 12.592 54.51 43.796 54.51 80.037 0 47.168-37.479 86.055-84.689 86.055-47.126 0-86.696-39.527-86.696-86.696 0-36.113 22.837-66.761 54.638-79.268l0.043-266.789c-32.527-12.038-55.876-43.070-55.876-79.866 0-11.952 2.518-23.307 6.915-33.637l-109.063-109.149-303.713 303.67c-25.569 25.654-25.654 67.274 0.043 92.971l445.644 448.974c12.635 12.592 28.642 19.209 46.485 19.209 17.715 0 33.978-6.787 46.485-19.209l443.553-446.968c25.654-25.569 25.569-67.274 0-92.928z"></path>
</svg>
