<svg version="1.1" xmlns="http://www.w3.org/2000/svg" width="1024" height="1024" viewBox="0 0 1024 1024">
<path fill="#000" d="M651.537-2.292c-209.173 0-378.818 169.69-378.818 378.907 0 76.941 23.287 148.175 62.596 208.008 0 0-236.822 235.656-306.806 306.806-70.025 71.105 43.243 175.869 112.406 104.066 69.208-71.668 302.659-302.614 302.659-302.614 59.788 39.354 131.112 62.641 207.963 62.641 209.303 0 378.947-169.774 378.947-378.907 0.045-209.258-169.645-378.907-378.947-378.907zM651.537 647.215c-149.43 0-270.649-121.134-270.649-270.604s121.174-270.649 270.649-270.649c149.559 0 270.689 121.134 270.689 270.649 0 149.47-121.134 270.604-270.689 270.604z"></path>
</svg>