<?xml version="1.0" encoding="utf-8"?><!-- Uploaded to: SVG Repo, www.svgrepo.com, Generator: SVG Repo Mixer Tools -->
<svg width="800px" height="800px" viewBox="0 0 48 48" fill="none" xmlns="http://www.w3.org/2000/svg">
<rect width="48" height="48" fill="white" fill-opacity="0.01"/>
<path d="M35 26.6139L15.1463 7.31395C13.9868 6.18686 12.1332 6.21308 11.0062 7.3725C10.9652 7.41459 10.9256 7.45789 10.8873 7.50235C9.74436 8.82907 9.8228 10.814 11.0669 12.0463L21.091 21.9763" stroke="#000000" stroke-width="4" stroke-linecap="round"/>
<path d="M21.0909 21.9762L10.1773 11.1548C8.88352 9.87195 6.8201 9.80176 5.44214 10.9937C4.17554 12.0893 4.03694 14.0043 5.13256 15.2709C5.17411 15.3189 5.21715 15.3656 5.26164 15.411L16.2553 26.6138" stroke="#000000" stroke-width="4" stroke-linecap="round" stroke-linejoin="round"/>
<path d="M16.2553 26.6138L10 20.5001C8.73766 19.2104 6.67317 19.1745 5.36682 20.4197C4.07445 21.6515 4.02538 23.6978 5.25721 24.9902C5.26288 24.9961 5.26857 25.002 5.27429 25.0079C14.5039 34.5444 19.294 39.0486 21.091 40.5535C24 42.9898 29.7351 44.0001 32.7305 42.0001C35.7259 40.0001 38.4333 37.1545 39.7183 34.3288C40.4833 32.6466 41.9692 27.4596 44.1759 18.768C44.6251 16.9987 43.5549 15.2002 41.7856 14.751C41.7627 14.7452 41.7397 14.7396 41.7167 14.7343C39.8835 14.3106 38.0431 15.4117 37.5499 17.2274L35 26.6138" stroke="#000000" stroke-width="4" stroke-linecap="round"/>
<path d="M31.7159 12.666C31.004 11.6026 30.1903 10.6131 29.2887 9.71151C28.3871 8.80992 27.3976 7.9962 26.3342 7.28431C25.8051 6.9301 25.2577 6.6011 24.6937 6.29903C24.133 5.99872 23.5559 5.72502 22.9641 5.47963" stroke="#000000" stroke-width="4" stroke-linecap="round"/>
<path d="M5.19397 33.7763C5.84923 34.8754 6.61005 35.9062 7.46322 36.8537C8.31639 37.8012 9.26192 38.6656 10.2866 39.4322C10.7964 39.8136 11.3259 40.1708 11.8733 40.502C12.4175 40.8312 12.9795 41.1348 13.5576 41.4108" stroke="#000000" stroke-width="4" stroke-linecap="round"/>
</svg>