<svg xmlns="http://www.w3.org/2000/svg" viewBox="0 0 16 16"><style>.st0{opacity:0}.st0,.st1{fill:#2d2d30}.st2{fill:#2b282e}.st3{fill:#c5c5c5}</style><g id="outline"><path class="st0" d="M0 0h16v16H0z"/><path class="st1" d="M1 2h15v12H1z"/></g><g id="icon_x5F_fg"><path class="st2" d="M12.078 7.977a.645.645 0 0 0-.57-.32.678.678 0 0 0-.332.082.783.783 0 0 0-.256.232 1.162 1.162 0 0 0-.168.36 1.646 1.646 0 0 0-.061.465v.506c0 .137.02.264.057.381a.994.994 0 0 0 .154.307.746.746 0 0 0 .236.207.675.675 0 0 0 .651-.016.755.755 0 0 0 .264-.266c.074-.117.129-.266.168-.445.041-.18.061-.387.061-.622a2.12 2.12 0 0 0-.053-.494 1.239 1.239 0 0 0-.151-.377zM7.102 9.224a.541.541 0 0 0-.195.133c-.047.053-.08.111-.098.18s-.027.146-.027.232c0 .078.014.15.041.219a.489.489 0 0 0 .302.285.774.774 0 0 0 .579-.031.801.801 0 0 0 .256-.199.897.897 0 0 0 .165-.295c.038-.113.059-.234.059-.365v-.347l-.762.11c-.13.017-.237.044-.32.078z"/><path class="st2" d="M3 4v8h11V4H3zm5.961 6.907h-.785v-.529h-.013c-.12.203-.267.358-.439.463-.173.107-.374.16-.604.16-.181 0-.339-.027-.479-.084a.966.966 0 0 1-.567-.595A1.398 1.398 0 0 1 6 9.858c0-.164.021-.318.065-.461a1.09 1.09 0 0 1 .562-.661c.146-.074.321-.125.525-.152l1.03-.154c0-.275-.058-.475-.174-.6-.116-.123-.28-.185-.493-.185-.214 0-.423.039-.627.117a1.909 1.909 0 0 0-.544.313v-.768c.051-.035.121-.072.213-.113a3.196 3.196 0 0 1 .672-.195c.127-.021.249-.033.368-.033.234 0 .438.033.608.102.171.068.313.166.424.295.111.127.195.285.249.469.056.186.083.399.083.637v2.438zm3.947-1.201a2.18 2.18 0 0 1-.273.672 1.34 1.34 0 0 1-.443.443c-.176.107-.379.16-.609.16a.93.93 0 0 1-.291-.043.81.81 0 0 1-.238-.121.99.99 0 0 1-.191-.186 1.507 1.507 0 0 1-.152-.228h-.012v.484H10V5h.697v2.656h.012c.055-.105.115-.201.182-.289.066-.086.141-.16.225-.223a.99.99 0 0 1 .615-.198c.221 0 .412.05.572.153.16.102.291.24.395.416.104.176.178.379.229.612.048.233.073.477.073.735 0 .305-.031.584-.092.844z"/></g><g id="icon_x5F_bg"><path class="st3" d="M2 3v10h13V3H2zm12 9H3V4h11v8z"/><path class="st3" d="M8.629 7.361a1.084 1.084 0 0 0-.423-.295 1.646 1.646 0 0 0-.609-.101c-.119 0-.241.012-.368.033a3.196 3.196 0 0 0-.672.195 1.287 1.287 0 0 0-.213.114v.768c.158-.132.341-.235.544-.313.204-.078.413-.117.627-.117.213 0 .377.063.494.186.116.125.174.325.174.6l-1.03.154a1.645 1.645 0 0 0-.526.152 1.09 1.09 0 0 0-.562.66A1.562 1.562 0 0 0 6 9.858c0 .17.025.322.074.463a.945.945 0 0 0 .568.595c.14.057.298.084.479.084.229 0 .431-.053.604-.16a1.3 1.3 0 0 0 .439-.463h.014v.529h.785V8.469c0-.238-.027-.451-.083-.637a1.289 1.289 0 0 0-.251-.471zm-.446 2.021c0 .131-.021.252-.059.365a.897.897 0 0 1-.165.295.76.76 0 0 1-.593.271.682.682 0 0 1-.242-.041.528.528 0 0 1-.186-.113.48.48 0 0 1-.116-.172.583.583 0 0 1-.04-.218c0-.086.01-.164.027-.232s.051-.127.098-.18a.541.541 0 0 1 .195-.133c.083-.033.189-.061.32-.078l.761-.109v.345zM12.697 7.516a1.194 1.194 0 0 0-.394-.416 1.028 1.028 0 0 0-.572-.153 1.016 1.016 0 0 0-.615.198 1.187 1.187 0 0 0-.225.223 2.12 2.12 0 0 0-.182.289h-.012V5H10v5.888h.697v-.484h.012c.045.082.096.158.152.228.057.07.119.133.191.186a.81.81 0 0 0 .238.121.93.93 0 0 0 .291.043c.231 0 .434-.053.609-.16a1.33 1.33 0 0 0 .443-.443c.121-.188.211-.412.273-.672A3.58 3.58 0 0 0 13 8.862a3.54 3.54 0 0 0-.074-.734 2.044 2.044 0 0 0-.229-.612zm-.476 1.954c-.039.18-.094.328-.168.445a.747.747 0 0 1-.264.266.675.675 0 0 1-.651.016.736.736 0 0 1-.236-.207.983.983 0 0 1-.154-.307 1.257 1.257 0 0 1-.057-.381v-.507c0-.17.02-.326.061-.465.039-.139.096-.258.168-.36a.762.762 0 0 1 .256-.232.678.678 0 0 1 .332-.082.642.642 0 0 1 .57.32c.066.106.117.231.15.377.035.146.053.311.053.494 0 .236-.019.443-.06.623z"/></g></svg>