<svg xmlns="http://www.w3.org/2000/svg" viewBox="0 0 16 16"><style>.st0{opacity:0}.st0,.st1{fill:#f6f6f6}.st2{fill:#424242}.st3{fill:#f0eff1}</style><g id="outline"><path class="st0" d="M0 0h16v16H0z"/><path class="st1" d="M9.586 16L8 14.414 6.414 16H1.586L0 14.414v-3.828L1.586 9H3.53l1.333-2h-.278L3 5.414V1.586L4.585 0h6.829L13 1.586v3.828L11.414 7h-.278l1.334 2h1.944L16 10.586v3.828L14.414 16H9.586zM8 10.586l1.152-1.152L8 7.705 6.847 9.434 8 10.586z"/></g><path class="st2" d="M14 10h-2.065L9.268 6H11l1-1V2l-1-1H5L4 2v3l1 1h1.733l-2.667 4H2l-1 1v3l1 1h4l1-1v-3l-1-1h-.732l2.667-4h.131l2.667 4H10l-1 1v3l1 1h4l1-1v-3l-1-1zm-8 1v3H2v-3h4zM5 5V2h6v3H5zm9 9h-4v-3h4v3z" id="icon_x5F_bg"/><path class="st3" d="M14 11v3h-4v-3h4zM2 14h4v-3H2v3zm9-12H5v3h6V2z" id="icon_x5F_fg"/></svg>