<svg xmlns="http://www.w3.org/2000/svg" viewBox="0 0 16 16"><style>.st0{opacity:0}.st0,.st1{fill:#2d2d30}.st2{fill:#2b282e}.st3{fill:#c5c5c5}</style><g id="outline"><path class="st0" d="M0 0h16v16H0z"/><path class="st1" d="M0 1h16v13H0z"/></g><path class="st2" d="M2 3v9h12V3H2zm3.141 7H4.063l.005-3.999-.973.21H3v-.875l2.141-.432V10zm4.162-.916V10H6v-.86l1.438-1.375c.152-.145.279-.276.382-.393.102-.116.185-.225.246-.325a1.043 1.043 0 0 0 .17-.574.797.797 0 0 0-.049-.281.597.597 0 0 0-.379-.361.995.995 0 0 0-.328-.051c-.119 0-.234.014-.347.04-.112.027-.22.064-.325.112a2.133 2.133 0 0 0-.297.165 2.78 2.78 0 0 0-.263.198v-.974a2.1 2.1 0 0 1 .268-.146 2.876 2.876 0 0 1 1.203-.27c.277 0 .518.037.723.11.203.074.371.175.504.303.134.129.231.28.296.453.064.174.096.36.096.558a1.752 1.752 0 0 1-.233.879 2.832 2.832 0 0 1-.322.453 4.693 4.693 0 0 1-.484.485l-1.032.917v.021h2.036zm3.777-.012a1.25 1.25 0 0 1-.346.483 1.616 1.616 0 0 1-.592.325c-.24.081-.527.12-.857.12-.121 0-.244-.006-.367-.02a3.547 3.547 0 0 1-.352-.052 2.795 2.795 0 0 1-.316-.081 1.686 1.686 0 0 1-.25-.1v-.961a1.884 1.884 0 0 0 .57.276 2.308 2.308 0 0 0 .606.09c.293 0 .516-.063.67-.188a.607.607 0 0 0 .232-.502.581.581 0 0 0-.311-.531 1.164 1.164 0 0 0-.35-.128 2.254 2.254 0 0 0-.441-.042h-.451v-.844h.416c.174 0 .32-.016.445-.049a.887.887 0 0 0 .305-.137.548.548 0 0 0 .237-.465.671.671 0 0 0-.043-.245.486.486 0 0 0-.137-.194.635.635 0 0 0-.236-.128 1.18 1.18 0 0 0-.342-.046c-.096 0-.189.01-.283.028-.092.02-.18.044-.262.073a2.072 2.072 0 0 0-.435.225v-.903a2.713 2.713 0 0 1 .486-.177 3.109 3.109 0 0 1 .746-.088c.293 0 .543.036.748.11.205.073.371.17.498.287.129.118.221.251.279.398.059.148.088.299.088.45 0 .143-.02.277-.055.407a1.108 1.108 0 0 1-.48.641c-.123.08-.273.142-.449.184v.018c.184.023.348.069.49.14a1.122 1.122 0 0 1 .65 1.033c0 .211-.037.41-.111.593z" id="icon_x5F_fg"/><g id="icon_x5F_bg"><path class="st3" d="M1 2v11h14V2H1zm13 10H2V3h12v9z"/><path class="st3" d="M8.299 8.146c.191-.168.353-.33.484-.485.133-.155.24-.307.322-.453a1.737 1.737 0 0 0 .137-1.437 1.204 1.204 0 0 0-.296-.453 1.393 1.393 0 0 0-.505-.302 2.151 2.151 0 0 0-.723-.11 2.958 2.958 0 0 0-1.202.269 2.232 2.232 0 0 0-.268.146v.974c.082-.07.17-.136.263-.198a1.99 1.99 0 0 1 .623-.277c.112-.026.227-.04.346-.04.123 0 .232.018.327.051a.645.645 0 0 1 .236.142.63.63 0 0 1 .145.219c.032.086.049.18.049.281a1.038 1.038 0 0 1-.171.574c-.061.1-.144.209-.246.325-.103.117-.23.248-.382.393L6 9.14V10h3.303v-.916H7.267v-.021l1.032-.917zM12.898 7.706a1.221 1.221 0 0 0-.357-.261 1.576 1.576 0 0 0-.49-.14v-.017c.176-.042.326-.104.449-.184.125-.081.229-.175.307-.283.08-.109.137-.228.174-.357.035-.13.055-.265.055-.407a1.21 1.21 0 0 0-.088-.45 1.078 1.078 0 0 0-.279-.398 1.438 1.438 0 0 0-.498-.287 2.219 2.219 0 0 0-.748-.11c-.143 0-.277.009-.402.024a2.58 2.58 0 0 0-.83.241v.903a1.978 1.978 0 0 1 .435-.225c.082-.029.17-.054.262-.073.094-.019.188-.028.283-.028.133 0 .246.017.342.046a.62.62 0 0 1 .236.128c.063.055.108.12.137.194a.671.671 0 0 1-.014.504.548.548 0 0 1-.18.206.906.906 0 0 1-.305.137 1.748 1.748 0 0 1-.445.049h-.416v.847h.451c.158 0 .307.015.441.042.135.028.252.071.35.128a.66.66 0 0 1 .229.219.579.579 0 0 1 .082.312c0 .21-.076.378-.232.502-.154.125-.377.188-.67.188-.094 0-.191-.007-.295-.022a2.472 2.472 0 0 1-.311-.068 1.884 1.884 0 0 1-.571-.28v.962c.07.035.154.068.25.1.098.031.203.059.316.081a3.817 3.817 0 0 0 .719.071c.33 0 .617-.039.857-.119.24-.078.438-.187.592-.325.156-.138.272-.299.346-.483.074-.184.111-.382.111-.595a1.122 1.122 0 0 0-.293-.772zM3 6.211h.095l.972-.21L4.063 10h1.078V4.904L3 5.336z"/></g></svg>